# AST/ASF file generated using VICON BodyLanguage
# -----------------------------------------------
:version 1.10
:name VICON
:units
  mass 1.0
  length 0.45
  angle deg
:documentation
   .ast/.asf automatically generated from VICON data using
   VICON BodyBuilder and BodyLanguage model FoxedUp or BRILLIANT.MOD
:root
   order TX TY TZ RX RY RZ
   axis XYZ
   position 0 0 0  
   orientation 0 0 0 
:bonedata
  begin
     id 1 
     name lhipjoint
     direction 0.566809 -0.746272 0.349008 
     length 2.40479 
     axis 0 0 0  XYZ
  end
  begin
     id 2 
     name lfemur
     direction 0.34202 -0.939693 0  
     length 7.1578  
     axis 0 0 20  XYZ
    dof rx ry rz
    limits (-160.0 20.0)
           (-70.0 70.0)
           (-60.0 70.0)
  end
  begin
     id 3 
     name ltibia
     direction 0.34202 -0.939693 0   
     length 7.49137   
     axis 0 0 20   XYZ
    dof rx
    limits (-10.0 170.0)
  end
  begin
     id 4 
     name lfoot
     direction 0.0665746 -0.182912 0.980873   
     length 2.36784   
     axis -90 7.62852e-016 20   XYZ
    dof rx rz
    limits (-45.0 90.0)
           (-70.0 20.0)
  end
  begin
     id 5 
     name ltoes
     direction 1.53601e-011 -4.22058e-011 1   
     length 1.18966   
     axis -90 7.62852e-016 20   XYZ
    dof rx
    limits (-90.0 20.0)
  end
  begin
     id 6 
     name rhipjoint
     direction -0.550236 -0.756381 0.353735   
     length 2.37265  
     axis 0 0 0  XYZ 
  end
  begin
     id 7 
     name rfemur
     direction -0.34202 -0.939693 0   
     length 7.43386   
     axis 0 0 -20   XYZ
    dof rx ry rz
    limits (-160.0 20.0)
           (-70.0 70.0)
           (-70.0 60.0)
  end
  begin
     id 8 
     name rtibia
     direction -0.34202 -0.939693 0   
     length 7.50908   
     axis 0 0 -20   XYZ
    dof rx
    limits (-10.0 170.0)
 end
 begin
     id 9 
     name rfoot
     direction -0.0683029 -0.187661 0.979856   
     length 2.41173  
     axis -90 -7.62852e-016 -20   XYZ
    dof rx rz
    limits (-45.0 90.0)
           (-20.0 70.0)
  end
  begin
     id 10 
     name rtoes
     direction -1.53528e-011 -4.21968e-011 1   
     length 1.21082   
     axis -90 -7.62852e-016 -20   XYZ
    dof rx
    limits (-90.0 20.0)
  end
  begin
     id 11 
     name lowerback
     direction 0.013823 0.995423 -0.0945635   
     length 2.04495   
     axis 0 0 0   XYZ
    dof rx ry rz
    limits (-20.0 45.0)
           (-30.0 30.0)
           (-30.0 30.0)
  end
  begin
     id 12 
     name upperback
     direction 0.0276657 0.9994 -0.020853   
     length 2.05008   
     axis 0 0 0   XYZ
    dof rx ry rz
    limits (-20.0 45.0)
           (-30.0 30.0)
           (-30.0 30.0)
  end
  begin
     id 13 
     name thorax
     direction 0.019782 0.999531 0.0233827   
     length 2.06488   
     axis 0 0 0   XYZ
    dof rx ry rz
    limits (-20.0 45.0)
           (-30.0 30.0)
           (-30.0 30.0)
  end
  begin
     id 14 
     name lowerneck
     direction -0.0308541 0.994709 0.0979874   
     length 1.75553   
     axis 0 0 0   XYZ
    dof rx ry rz
    limits (-20.0 45.0)
           (-30.0 30.0)
           (-30.0 30.0)
  end
  begin
     id 15 
     name upperneck
     direction 0.0588398 0.995804 -0.0700903   
     length 1.76878   
     axis 0 0 0   XYZ
    dof rx ry rz
    limits (-20.0 45.0)
           (-30.0 30.0)
           (-30.0 30.0)
  end
  begin
     id 16
     name head
     direction 0.0209966 0.999159 -0.0352225  
     length 1.77193  
     axis 0 0 0   XYZ
    dof rx ry rz
    limits (-20.0 45.0)
           (-30.0 30.0)
           (-30.0 30.0)
  end
  begin
     id 17 
     name lclavicle
     direction 0.938182 0.335073 -0.0868338  
     length 3.58396  
     axis 0 0 0   XYZ
    dof ry rz
    limits (-20.0 10.0)
           (0.0 20.0)
  end
  begin
     id 18 
     name lhumerus
     direction 1 -4.48971e-011 -1.26313e-017   
     length 4.983   
     axis 180 -30 -90   XYZ
    dof rx ry rz
    limits (-60.0 90.0)
           (-90.0 90.0)
           (-90.0 90.0)
  end
  begin
     id 19
     name lradius
     direction 1 -4.48948e-011 -5.89033e-027   
     length 3.48356   
     axis 180 -30 -90   XYZ
    dof rx
    limits (-10.0 170.0)
  end
  begin
     id 20
     name lwrist
     direction 1 -4.48977e-011 -1.48983e-026   
     length 1.74178   
     axis 9.0955e-015 90 90   XYZ
    dof ry
    limits (-180.0 0.0)
 end
  begin
     id 21 
     name lhand
     direction 1 -4.49046e-011 -2.98066e-026   
     length 0.715259   
     axis 1.90115e-014 90 90   XYZ
    dof rx rz
    limits (-90.0 90.0)
           (-45.0 45.0)
  end
  begin
     id 22 
     name lfingers
     direction 1 -4.48907e-011 -5.95731e-026   
     length 0.576661   
     axis 3.80223e-014 90 90   XYZ
    dof rx
    limits (0.0 90.0)
  end
  begin
     id 23
     name lthumb
     direction 0.707107 -6.34963e-011 0.707107   
     length 0.827973   
     axis -90 45 -3.84942e-014   XYZ
    dof rx rz
    limits (-45.0 45.0)
           (-45.0 45.0)
  end
  begin
     id 24 
     name rclavicle
     direction -0.909637 0.398485 -0.11735   
     length 3.44819  
     axis 0 0 0   XYZ 
    dof ry rz
    limits (-10.0 20.0)
           (-20.0 0.0)
  end
  begin
     id 25 
     name rhumerus
     direction -1 -4.48978e-011 -1.09333e-027  
     length 5.2419   
     axis 180 30 90   XYZ
    dof rx ry rz
    limits (-90.0 60.0)
           (-90.0 90.0)
           (-90.0 90.0)
  end
  begin
     id 26 
     name rradius
     direction -1 -4.48953e-011 -7.61841e-027   
     length 3.44417   
     axis 180 30 90   XYZ
    dof rx
    limits (-10.0 170.0)
  end
  begin
     id 27 
     name rwrist
     direction -1 -4.48977e-011 -1.48983e-026   
     length 1.72209   
     axis 9.0955e-015 -90 -90   XYZ
    dof ry
    limits (-180.0 0.0)
  end
  begin
     id 28
     name rhand
     direction -1 -4.49027e-011 -2.98038e-026   
     length 0.622529   
     axis 1.90115e-014 -90 -90   XYZ
    dof rx rz
    limits (-90.0 90.0)
           (-45.0 45.0)
  end
  begin
     id 29
     name rfingers
     direction -1 -4.48838e-011 -5.95531e-026   
     length 0.501899   
     axis 3.80223e-014 -90 -90   XYZ
    dof rx
    limits (0.0 90.0)
  end
  begin
     id 30
     name rthumb
     direction -0.707107 -6.34937e-011 0.707107   
     length 0.720629   
     axis -90 -45 3.84942e-014   XYZ
    dof rx rz
    limits (-45.0 45.0)
           (-45.0 45.0)
  end
:hierarchy
  begin
    root lhipjoint rhipjoint lowerback
    lhipjoint lfemur
    lfemur ltibia
    ltibia lfoot
    lfoot ltoes
    rhipjoint rfemur
    rfemur rtibia
    rtibia rfoot
    rfoot rtoes
    lowerback upperback
    upperback thorax
    thorax lowerneck lclavicle rclavicle
    lowerneck upperneck
    upperneck head
    lclavicle lhumerus
    lhumerus lradius
    lradius lwrist
    lwrist lhand lthumb
    lhand lfingers
    rclavicle rhumerus
    rhumerus rradius
    rradius rwrist
    rwrist rhand rthumb
    rhand rfingers
  end

#!OML:ASF F:\VICON\USERDATA\Patient Classification 1\PLAYGROUND\JustinFriday\JustinFriday.ASF
:FULLY-SPECIFIED
:DEGREES
1209
root 13.2602 27.2622 43.1405 -346.955 -176.613 5.42132
lowerback 13.5386 -2.37214 6.14812
upperback 6.4312 -3.24682 -0.85704
thorax -1.13373 -1.83829 -3.88499
lowerneck 11.2049 -2.99659 -10.2216
upperneck -0.817182 -4.81409 10.5153
head -1.55038 -2.64244 5.05454
rclavicle -5.96354e-015 -1.59028e-014
rhumerus 96.5348 -6.85864 -85.6726
rradius 118.044
rwrist 18.8169
rhand -30.1304 -16.4622
rfingers 7.12502
rthumb -3.44342 -46.4141
lclavicle -5.96354e-015 -1.59028e-014
lhumerus 91.3278 18.6729 64.2186
lradius 110.86
lwrist -24.4324
lhand -29.4215 -11.2847
lfingers 7.12502
lthumb -2.75874 18.6772
rfemur -14.9416 -0.766142 28.8802
rtibia 30.6173
rfoot -34.0731 -12.0448
rtoes 10.1922
lfemur -13.0001 3.19511 -14.487
ltibia 30.0027
lfoot -33.3744 -1.40612
ltoes -4.14139
1210
root 13.2645 27.2534 43.0934 -346.856 -176.576 5.34032
lowerback 13.7117 -2.3443 5.97911
upperback 6.44082 -3.22577 -0.785171
thorax -1.20335 -1.83678 -3.71034
lowerneck 11.0487 -3.08438 -10.3234
upperneck -0.824675 -4.94677 10.3302
head -1.51461 -2.70205 5.01312
rclavicle -8.34896e-015 -3.18055e-015
rhumerus 97.1901 -6.97217 -85.482
rradius 118.148
rwrist 18.2316
rhand -30.8467 -15.8291
rfingers 7.12502
rthumb -4.13513 -45.7687
lclavicle -8.34896e-015 -3.18055e-015
lhumerus 92.0019 18.9636 64.4655
lradius 110.921
lwrist -24.6267
lhand -29.6574 -11.1522
lfingers 7.12502
lthumb -2.98663 18.8066
rfemur -14.8618 -0.852434 28.8064
rtibia 30.6121
rfoot -34.1873 -12.0518
rtoes 10.1633
lfemur -12.8603 3.04766 -14.5575
ltibia 29.9359
lfoot -33.5399 -1.28782
ltoes -3.6698
1211
root 13.2697 27.2476 43.0452 -346.681 -176.496 5.28714
lowerback 13.7699 -2.32328 5.86683
upperback 6.46956 -3.21444 -0.739742
thorax -1.19597 -1.8355 -3.59959
lowerneck 10.7173 -3.22077 -10.392
upperneck -0.667787 -5.12596 10.2478
head -1.39624 -2.78331 4.99171
rclavicle 2.82274e-014 -2.06736e-014
rhumerus 97.838 -7.16926 -85.3879
rradius 118.281
rwrist 17.429
rhand -31.3717 -15.3583
rfingers 7.12502
rthumb -4.64203 -45.2874
lclavicle 2.82274e-014 -2.06736e-014
lhumerus 92.7113 19.2455 64.7042
lradius 111.078
lwrist -24.6679
lhand -29.8003 -11.0958
lfingers 7.12502
lthumb -3.12456 18.861
rfemur -14.8621 -0.906938 28.7985
rtibia 30.6083
rfoot -34.2579 -12.1716
rtoes 9.98962
lfemur -12.8315 2.98654 -14.5607
ltibia 29.8529
lfoot -33.6626 -1.3188
ltoes -2.8168
1212
root 13.2749 27.2399 43.0028 -346.562 -176.462 5.45844
lowerback 14.001 -2.29601 5.93728
upperback 6.4156 -3.1503 -0.63957
thorax -1.36664 -1.80931 -3.53266
lowerneck 10.7486 -3.35571 -10.6816
upperneck -0.751978 -5.33635 10.5511
head -1.38884 -2.89869 5.1403
rclavicle 2.78299e-014 1.90833e-014
rhumerus 98.4329 -7.48723 -85.2668
rradius 118.334
rwrist 16.4797
rhand -31.7848 -14.9997
rfingers 7.12502
rthumb -5.04092 -44.9197
lclavicle 2.78299e-014 1.90833e-014
lhumerus 93.3435 19.3798 65.0419
lradius 111.347
lwrist -24.7358
lhand -29.503 -10.8208
lfingers 7.12502
lthumb -2.83747 19.1401
rfemur -14.8531 -0.850308 29.0247
rtibia 30.6289
rfoot -34.2911 -12.3991
rtoes 9.52753
lfemur -12.7856 2.99116 -14.3302
ltibia 29.7751
lfoot -33.6876 -1.35333
ltoes -2.64445
1213
root 13.2763 27.2367 42.957 -346.247 -176.155 5.21239
lowerback 13.9849 -2.37823 5.7868
upperback 6.29719 -3.24985 -0.618514
thorax -1.48811 -1.85713 -3.40671
lowerneck 11.1109 -3.51534 -10.972
upperneck -1.13479 -5.59395 10.943
head -1.51369 -3.04926 5.33292
rclavicle 1.35174e-014 -2.38542e-015
rhumerus 99.0799 -7.79062 -85.1296
rradius 118.329
rwrist 15.6945
rhand -32.2818 -14.6086
rfingers 7.12502
rthumb -5.52084 -44.5167
lclavicle 1.35174e-014 -2.38542e-015
lhumerus 94.0467 19.5275 65.3939
lradius 111.465
lwrist -24.7241
lhand -29.3355 -10.5934
lfingers 7.12502
lthumb -2.67571 19.3696
rfemur -15.0316 -1.10909 28.8487
rtibia 30.6069
rfoot -34.397 -12.5095
rtoes 9.36646
lfemur -13.0068 2.73884 -14.5223
ltibia 29.7162
lfoot -33.6092 -1.50497
ltoes -2.73146
1214
root 13.2984 27.2294 42.9127 -346.107 -176.67 5.15053
lowerback 14.2121 -2.09858 5.17919
upperback 6.29162 -2.95279 -0.549267
thorax -1.56073 -1.72611 -3.03047
lowerneck 11.1527 -3.74457 -10.9766
upperneck -1.38186 -5.90571 10.8956
head -1.55913 -3.2084 5.33192
rclavicle -7.95139e-015 -8.74653e-015
rhumerus 99.8212 -8.05366 -85.0089
rradius 118.36
rwrist 15.0347
rhand -32.8215 -14.119
rfingers 7.12502
rthumb -6.04191 -44.0128
lclavicle -7.95139e-015 -8.74653e-015
lhumerus 94.7809 19.8195 65.6824
lradius 111.501
lwrist -24.2356
lhand -29.4625 -10.8648
lfingers 7.12502
lthumb -2.79836 19.0966
rfemur -14.9793 -0.693626 28.7287
rtibia 30.5815
rfoot -34.4509 -12.4156
rtoes 9.46161
lfemur -12.8838 3.08184 -14.6302
ltibia 29.6981
lfoot -33.7538 -1.57164
ltoes -3.49835
1215
root 13.2902 27.2309 42.8642 -345.781 -175.843 5.06509
lowerback 14.052 -2.39984 5.5246
upperback 6.21928 -3.28812 -0.45151
thorax -1.59111 -1.88102 -3.07242
lowerneck 11.0922 -3.8816 -11.0171
upperneck -1.46724 -6.1014 10.6772
head -1.55721 -3.29991 5.2745
rclavicle -2.78299e-015 6.36111e-015
rhumerus 100.394 -8.27414 -84.8658
rradius 118.416
rwrist 14.4464
rhand -33.3982 -13.432
rfingers 7.12502
rthumb -6.59867 -43.3091
lclavicle -2.78299e-015 6.36111e-015
lhumerus 95.4166 20.0889 66.0981
lradius 112.014
lwrist -25.0348
lhand -28.784 -9.2316
lfingers 7.12502
lthumb -2.14309 20.7374
rfemur -15.1733 -1.1514 28.8099
rtibia 30.5391
rfoot -34.6154 -12.6102
rtoes 9.62547
lfemur -13.2249 2.24096 -14.5542
ltibia 29.677
lfoot -33.7553 -1.67946
ltoes -4.43107
1216
root 13.3063 27.2245 42.8166 -345.494 -176.355 5.27113
lowerback 14.0894 -2.15255 5.24754
upperback 6.08546 -2.97048 -0.337786
thorax -1.70768 -1.72687 -2.84347
lowerneck 11.2782 -3.93026 -11.1459
upperneck -1.63901 -6.19895 10.6191
head -1.62424 -3.35096 5.28878
rclavicle -9.14409e-015 1.43125e-014
rhumerus 100.887 -8.38992 -84.8063
rradius 118.492
rwrist 14.0597
rhand -33.9729 -12.5511
rfingers 7.12502
rthumb -7.15338 -42.4102
lclavicle -9.14409e-015 1.43125e-014
lhumerus 96.0558 20.2264 66.3996
lradius 112.184
lwrist -25.0829
lhand -28.7361 -8.88672
lfingers 7.12502
lthumb -2.09689 21.0827
rfemur -15.2618 -0.765835 28.9877
rtibia 30.4882
rfoot -34.6549 -12.468
rtoes 9.49828
lfemur -13.2912 2.92365 -14.3587
ltibia 29.7047
lfoot -33.8767 -1.9588
ltoes -4.57582
1217
root 13.3104 27.2204 42.7709 -345.272 -176.065 5.16408
lowerback 14.1578 -2.22835 5.21186
upperback 5.99961 -3.0529 -0.291973
thorax -1.83889 -1.7674 -2.75657
lowerneck 11.4709 -4.04332 -11.2672
upperneck -1.86924 -6.38062 10.608
head -1.69902 -3.44604 5.32003
rclavicle 1.66979e-014 5.56597e-015
rhumerus 101.524 -8.50921 -84.8401
rradius 118.54
rwrist 13.7451
rhand -34.3088 -11.8179
rfingers 7.12502
rthumb -7.47768 -41.6658
lclavicle 1.66979e-014 5.56597e-015
lhumerus 96.8598 20.3786 66.8168
lradius 112.359
lwrist -25.5255
lhand -28.4654 -8.42231
lfingers 7.12502
lthumb -1.8354 21.5495
rfemur -15.2967 -0.982526 28.9733
rtibia 30.4049
rfoot -34.7944 -12.5065
rtoes 9.55743
lfemur -13.4403 2.91147 -14.3644
ltibia 29.7574
lfoot -33.9543 -2.30249
ltoes -4.61498
1218
root 13.3137 27.2179 42.7247 -345.052 -175.826 4.92715
lowerback 14.2305 -2.28639 5.04695
upperback 5.95179 -3.13688 -0.287072
thorax -1.92922 -1.81064 -2.64033
lowerneck 11.4412 -4.17917 -11.2453
upperneck -2.0474 -6.56357 10.447
head -1.732 -3.53307 5.27332
rclavicle -1.74931e-014 7.95139e-015
rhumerus 102.178 -8.59897 -84.9255
rradius 118.611
rwrist 13.553
rhand -34.4607 -11.1467
rfingers 7.12502
rthumb -7.62424 -40.9893
lclavicle -1.74931e-014 7.95139e-015
lhumerus 97.5191 20.6151 66.9711
lradius 112.261
lwrist -24.3407
lhand -28.6987 -9.16486
lfingers 7.12502
lthumb -2.06072 20.8049
rfemur -15.3366 -1.19422 28.8031
rtibia 30.3547
rfoot -34.9237 -12.5776
rtoes 9.61381
lfemur -13.5624 2.91006 -14.5466
ltibia 29.8105
lfoot -34.0339 -2.41158
ltoes -5.18868
